<?xml version="1.0" encoding="utf-8"?>
<svg version="1.1" xmlns:xlink="http://www.w3.org/1999/xlink" width="74px" height="23px" xmlns="http://www.w3.org/2000/svg">
  <defs>
    <mask fill="white" id="clip9">
      <path d="M 0 18  L 0 5  C 0 2.20000000000005  2.20000000000005 0  5 0  L 38 0  L 69 0  C 71.8 0  74 2.20000000000005  74 5  L 74 18  C 74 20.8  71.8 23  69 23  L 5 23  C 2.20000000000005 23  0 20.8  0 18  Z " fill-rule="evenodd" />
    </mask>
  </defs>
  <g transform="matrix(1 0 0 1 -1161 -225 )">
    <path d="M 0 18  L 0 5  C 0 2.20000000000005  2.20000000000005 0  5 0  L 38 0  L 69 0  C 71.8 0  74 2.20000000000005  74 5  L 74 18  C 74 20.8  71.8 23  69 23  L 5 23  C 2.20000000000005 23  0 20.8  0 18  Z " fill-rule="nonzero" fill="#ffffff" stroke="none" transform="matrix(1 0 0 1 1161 225 )" />
    <path d="M 0 18  L 0 5  C 0 2.20000000000005  2.20000000000005 0  5 0  L 38 0  L 69 0  C 71.8 0  74 2.20000000000005  74 5  L 74 18  C 74 20.8  71.8 23  69 23  L 5 23  C 2.20000000000005 23  0 20.8  0 18  Z " stroke-width="2" stroke="#f2f2f2" fill="none" transform="matrix(1 0 0 1 1161 225 )" mask="url(#clip9)" />
  </g>
</svg>