<?xml version="1.0" encoding="utf-8"?>
<svg version="1.1" xmlns:xlink="http://www.w3.org/1999/xlink" width="12px" height="12px" viewBox="476 633.5  12 12" xmlns="http://www.w3.org/2000/svg">
  <path d="M 482 633.5  C 485.36 633.5  488 636.14  488 639.5  C 488 642.86  485.36 645.5  482 645.5  C 478.64 645.5  476 642.86  476 639.5  C 476 636.14  478.64 633.5  482 633.5  Z " fill-rule="nonzero" fill="#ffffff" stroke="none" />
  <path d="M 482 634  C 485.08 634  487.5 636.42  487.5 639.5  C 487.5 642.58  485.08 645  482 645  C 478.92 645  476.5 642.58  476.5 639.5  C 476.5 636.42  478.92 634  482 634  Z " stroke-width="1" stroke="#797979" fill="none" />
  <path d="M 482 642.5  C 480.32 642.5  479 641.18  479 639.5  C 479 637.82  480.32 636.5  482 636.5  C 483.68 636.5  485 637.82  485 639.5  C 485 641.18  483.68 642.5  482 642.5  " fill-rule="nonzero" fill="#797979" stroke="none" />
</svg>