<?xml version="1.0" encoding="utf-8"?>
<svg version="1.1" xmlns:xlink="http://www.w3.org/1999/xlink" width="12px" height="12px" viewBox="592 633.5  12 12" xmlns="http://www.w3.org/2000/svg">
  <path d="M 598 633.5  C 601.36 633.5  604 636.14  604 639.5  C 604 642.86  601.36 645.5  598 645.5  C 594.64 645.5  592 642.86  592 639.5  C 592 636.14  594.64 633.5  598 633.5  Z " fill-rule="nonzero" fill="#ffffff" stroke="none" />
  <path d="M 598 634  C 601.08 634  603.5 636.42  603.5 639.5  C 603.5 642.58  601.08 645  598 645  C 594.92 645  592.5 642.58  592.5 639.5  C 592.5 636.42  594.92 634  598 634  Z " stroke-width="1" stroke="#797979" fill="none" />
  <path d="M 598 642.5  C 596.32 642.5  595 641.18  595 639.5  C 595 637.82  596.32 636.5  598 636.5  C 599.68 636.5  601 637.82  601 639.5  C 601 641.18  599.68 642.5  598 642.5  " fill-rule="nonzero" fill="#797979" stroke="none" />
</svg>