<?xml version="1.0" encoding="utf-8"?>
<svg version="1.1" xmlns:xlink="http://www.w3.org/1999/xlink" width="12px" height="12px" viewBox="535 856  12 12" xmlns="http://www.w3.org/2000/svg">
  <path d="M 541 856  C 544.36 856  547 858.64  547 862  C 547 865.36  544.36 868  541 868  C 537.64 868  535 865.36  535 862  C 535 858.64  537.64 856  541 856  Z " fill-rule="nonzero" fill="#ffffff" stroke="none" />
  <path d="M 541 856.5  C 544.08 856.5  546.5 858.92  546.5 862  C 546.5 865.08  544.08 867.5  541 867.5  C 537.92 867.5  535.5 865.08  535.5 862  C 535.5 858.92  537.92 856.5  541 856.5  Z " stroke-width="1" stroke="#797979" fill="none" />
  <path d="M 541 865  C 539.32 865  538 863.68  538 862  C 538 860.32  539.32 859  541 859  C 542.68 859  544 860.32  544 862  C 544 863.68  542.68 865  541 865  " fill-rule="nonzero" fill="#797979" stroke="none" />
</svg>