<?xml version="1.0" encoding="utf-8"?>
<svg version="1.1" xmlns:xlink="http://www.w3.org/1999/xlink" width="12px" height="12px" viewBox="535 941  12 12" xmlns="http://www.w3.org/2000/svg">
  <path d="M 541 941  C 544.36 941  547 943.64  547 947  C 547 950.36  544.36 953  541 953  C 537.64 953  535 950.36  535 947  C 535 943.64  537.64 941  541 941  Z " fill-rule="nonzero" fill="#f0f0f0" stroke="none" />
  <path d="M 541 941.5  C 544.08 941.5  546.5 943.92  546.5 947  C 546.5 950.08  544.08 952.5  541 952.5  C 537.92 952.5  535.5 950.08  535.5 947  C 535.5 943.92  537.92 941.5  541 941.5  Z " stroke-width="1" stroke="#797979" fill="none" />
  <path d="M 541 950  C 539.32 950  538 948.68  538 947  C 538 945.32  539.32 944  541 944  C 542.68 944  544 945.32  544 947  C 544 948.68  542.68 950  541 950  " fill-rule="nonzero" fill="#797979" stroke="none" />
</svg>