<?xml version="1.0" encoding="utf-8"?>
<svg version="1.1" xmlns:xlink="http://www.w3.org/1999/xlink" width="35px" height="24px" xmlns="http://www.w3.org/2000/svg">
  <g transform="matrix(1 0 0 1 -456 -6631 )">
    <path d="M 34.3677419354839 0.248410026187803  C 34.789247311828 0.68138171841875  35 1.20713305898493  35 1.82566404788627  C 35 2.44419503678761  34.789247311828 2.96994637735379  34.3677419354839 3.40291806958474  L 18.0193548387097 20.1960344182566  L 14.9483870967742 23.3505424616536  C 14.5268817204301 23.7835141538845  14.0150537634409 24  13.4129032258064 24  C 12.810752688172 24  12.2989247311828 23.7835141538845  11.8774193548387 23.3505424616536  L 8.80645161290323 20.1960344182566  L 0.632258064516122 11.7994762439207  C 0.21075268817205 11.3665045516897  0 10.8407532111236  0 10.2222222222222  C 0 9.60369123332088  0.21075268817205 9.0779398927547  0.632258064516122 8.64496820052375  C 0.632258064516122 8.64496820052375  0.210752688172036 8.21199650829281  0.632258064516122 8.64496820052375  L 13.4129032258064 20.1960344182566  L 34.3677419354839 0.248410026187803  C 34.789247311828 -0.184561666043144  34.3677419354839 0.248410026187803  34.3677419354839 0.248410026187803  Z " fill-rule="nonzero" fill="#7f7f7f" stroke="none" fill-opacity="0.827450980392157" transform="matrix(1 0 0 1 456 6631 )" />
  </g>
</svg>