<?xml version="1.0" encoding="utf-8"?>
<svg version="1.1" xmlns:xlink="http://www.w3.org/1999/xlink" width="40px" height="24px" xmlns="http://www.w3.org/2000/svg">
  <g transform="matrix(1 0 0 1 -566 -6777 )">
    <path d="M 39.2774193548387 0.248410026187803  C 39.7591397849462 0.68138171841875  40 1.20713305898493  40 1.82566404788627  C 40 2.44419503678761  39.7591397849462 2.96994637735379  39.2774193548387 3.40291806958474  L 20.5935483870968 20.1960344182566  L 17.0838709677419 23.3505424616536  C 16.6021505376344 23.7835141538845  16.0172043010753 24  15.3290322580645 24  C 14.6408602150538 24  14.0559139784946 23.7835141538845  13.5741935483871 23.3505424616536  L 10.0645161290323 20.1960344182566  L 0.722580645161283 11.7994762439207  C 0.240860215053772 11.3665045516897  0 10.8407532111236  0 10.2222222222222  C 0 9.60369123332088  0.240860215053772 9.0779398927547  0.722580645161283 8.64496820052375  C 0.722580645161283 8.64496820052375  0.240860215053755 8.21199650829281  0.722580645161283 8.64496820052375  L 15.3290322580645 20.1960344182566  L 39.2774193548387 0.248410026187803  C 39.7591397849463 -0.184561666043144  39.2774193548387 0.248410026187803  39.2774193548387 0.248410026187803  Z " fill-rule="nonzero" fill="#7f7f7f" stroke="none" fill-opacity="0.847058823529412" transform="matrix(1 0 0 1 566 6777 )" />
  </g>
</svg>