<?xml version="1.0" encoding="utf-8"?>
<svg version="1.1" xmlns:xlink="http://www.w3.org/1999/xlink" width="20px" height="20px" xmlns="http://www.w3.org/2000/svg">
  <g transform="matrix(1 0 0 1 -38 -1 )">
    <path d="M 48 1  C 53.6 1  58 5.4  58 11  C 58 16.6  53.6 21  48 21  C 42.4 21  38 16.6  38 11  C 38 5.4  42.4 1  48 1  Z " fill-rule="nonzero" fill="#ffffff" stroke="none" />
    <path d="M 48 1.5  C 53.32 1.5  57.5 5.68  57.5 11  C 57.5 16.32  53.32 20.5  48 20.5  C 42.68 20.5  38.5 16.32  38.5 11  C 38.5 5.68  42.68 1.5  48 1.5  Z " stroke-width="1" stroke="#8c8c8c" fill="none" />
  </g>
</svg>