<?xml version="1.0" encoding="utf-8"?>
<svg version="1.1" xmlns:xlink="http://www.w3.org/1999/xlink" width="13px" height="10px" xmlns="http://www.w3.org/2000/svg">
  <g transform="matrix(1 0 0 1 -1099 -110 )">
    <path d="M 1 7.67857142857143  L 1 9.28571428571429  L 3.25 9.28571428571429  L 3.25 7.67857142857143  L 1 7.67857142857143  Z M 3.75 7.67857142857143  L 3.75 9.28571428571429  L 6.25 9.28571428571429  L 6.25 7.67857142857143  L 3.75 7.67857142857143  Z M 1 5.53571428571429  L 1 7.32142857142857  L 3.25 7.32142857142857  L 3.25 5.53571428571429  L 1 5.53571428571429  Z M 3.75 5.53571428571429  L 3.75 7.32142857142857  L 6.25 7.32142857142857  L 6.25 5.53571428571429  L 3.75 5.53571428571429  Z M 1 3.57142857142857  L 1 5.17857142857143  L 3.25 5.17857142857143  L 3.25 3.57142857142857  L 1 3.57142857142857  Z M 6.75 7.67857142857143  L 6.75 9.28571428571429  L 9.25 9.28571428571429  L 9.25 7.67857142857143  L 6.75 7.67857142857143  Z M 3.75 3.57142857142857  L 3.75 5.17857142857143  L 6.25 5.17857142857143  L 6.25 3.57142857142857  L 3.75 3.57142857142857  Z M 9.75 7.67857142857143  L 9.75 9.28571428571429  L 12 9.28571428571429  L 12 7.67857142857143  L 9.75 7.67857142857143  Z M 6.75 5.53571428571429  L 6.75 7.32142857142857  L 9.25 7.32142857142857  L 9.25 5.53571428571429  L 6.75 5.53571428571429  Z M 3.92578125 2.62555803571429  C 3.97526041666667 2.59021577380952  4 2.54836309523809  4 2.5  L 4 0.892857142857143  C 4 0.844494047619048  3.97526041666667 0.802641369047619  3.92578125 0.767299107142857  C 3.87630208333333 0.731956845238094  3.81770833333333 0.714285714285714  3.75 0.714285714285714  L 3.25 0.714285714285714  C 3.18229166666667 0.714285714285714  3.12369791666667 0.731956845238094  3.07421875 0.767299107142857  C 3.02473958333333 0.802641369047619  3 0.844494047619048  3 0.892857142857143  L 3 2.5  C 3 2.54836309523809  3.02473958333333 2.59021577380952  3.07421875 2.62555803571429  C 3.12369791666667 2.66090029761905  3.18229166666667 2.67857142857143  3.25 2.67857142857143  L 3.75 2.67857142857143  C 3.81770833333333 2.67857142857143  3.87630208333333 2.66090029761905  3.92578125 2.62555803571429  Z M 9.75 5.53571428571429  L 9.75 7.32142857142857  L 12 7.32142857142857  L 12 5.53571428571429  L 9.75 5.53571428571429  Z M 6.75 3.57142857142857  L 6.75 5.17857142857143  L 9.25 5.17857142857143  L 9.25 3.57142857142857  L 6.75 3.57142857142857  Z M 9.75 3.57142857142857  L 9.75 5.17857142857143  L 12 5.17857142857143  L 12 3.57142857142857  L 9.75 3.57142857142857  Z M 9.92578125 2.62555803571429  C 9.97526041666667 2.59021577380952  10 2.54836309523809  10 2.5  L 10 0.892857142857143  C 10 0.844494047619048  9.97526041666667 0.802641369047619  9.92578125 0.767299107142857  C 9.87630208333333 0.731956845238094  9.81770833333333 0.714285714285714  9.75 0.714285714285714  L 9.25 0.714285714285714  C 9.18229166666667 0.714285714285714  9.12369791666667 0.731956845238094  9.07421875 0.767299107142857  C 9.02473958333333 0.802641369047619  9 0.844494047619048  9 0.892857142857143  L 9 2.5  C 9 2.54836309523809  9.02473958333333 2.59021577380952  9.07421875 2.62555803571429  C 9.12369791666667 2.66090029761905  9.18229166666667 2.67857142857143  9.25 2.67857142857143  L 9.75 2.67857142857143  C 9.81770833333333 2.67857142857143  9.87630208333333 2.66090029761905  9.92578125 2.62555803571429  Z M 12.703125 1.640625  C 12.9010416666667 1.78199404761905  13 1.94940476190476  13 2.14285714285714  L 13 9.28571428571429  C 13 9.47916666666667  12.9010416666667 9.64657738095238  12.703125 9.78794642857143  C 12.5052083333333 9.92931547619048  12.2708333333333 10  12 10  L 1 10  C 0.729166666666667 10  0.494791666666667 9.92931547619048  0.296875 9.78794642857143  C 0.0989583333333333 9.64657738095238  0 9.47916666666667  0 9.28571428571429  L 0 2.14285714285714  C 0 1.94940476190476  0.0989583333333333 1.78199404761905  0.296875 1.640625  C 0.494791666666667 1.49925595238095  0.729166666666667 1.42857142857143  1 1.42857142857143  L 2 1.42857142857143  L 2 0.892857142857143  C 2 0.647321428571429  2.12239583333333 0.437127976190476  2.3671875 0.262276785714286  C 2.61197916666667 0.0874255952380953  2.90625 0  3.25 0  L 3.75 0  C 4.09375 0  4.38802083333333 0.0874255952380953  4.6328125 0.262276785714286  C 4.87760416666667 0.437127976190476  5 0.647321428571429  5 0.892857142857143  L 5 1.42857142857143  L 8 1.42857142857143  L 8 0.892857142857143  C 8 0.647321428571429  8.12239583333333 0.437127976190476  8.3671875 0.262276785714286  C 8.61197916666667 0.0874255952380953  8.90625 0  9.25 0  L 9.75 0  C 10.09375 0  10.3880208333333 0.0874255952380953  10.6328125 0.262276785714286  C 10.8776041666667 0.437127976190476  11 0.647321428571429  11 0.892857142857143  L 11 1.42857142857143  L 12 1.42857142857143  C 12.2708333333333 1.42857142857143  12.5052083333333 1.49925595238095  12.703125 1.640625  Z " fill-rule="nonzero" fill="#8c8c8c" stroke="none" transform="matrix(1 0 0 1 1099 110 )" />
  </g>
</svg>