<?xml version="1.0" encoding="utf-8"?>
<svg version="1.1" xmlns:xlink="http://www.w3.org/1999/xlink" width="12px" height="12px" viewBox="297 172.5  12 12" xmlns="http://www.w3.org/2000/svg">
  <path d="M 303 172.5  C 306.36 172.5  309 175.14  309 178.5  C 309 181.86  306.36 184.5  303 184.5  C 299.64 184.5  297 181.86  297 178.5  C 297 175.14  299.64 172.5  303 172.5  Z " fill-rule="nonzero" fill="#f0f0f0" stroke="none" />
  <path d="M 303 173  C 306.08 173  308.5 175.42  308.5 178.5  C 308.5 181.58  306.08 184  303 184  C 299.92 184  297.5 181.58  297.5 178.5  C 297.5 175.42  299.92 173  303 173  Z " stroke-width="1" stroke="#797979" fill="none" />
  <path d="M 303 181.5  C 301.32 181.5  300 180.18  300 178.5  C 300 176.82  301.32 175.5  303 175.5  C 304.68 175.5  306 176.82  306 178.5  C 306 180.18  304.68 181.5  303 181.5  " fill-rule="nonzero" fill="#797979" stroke="none" />
</svg>