<?xml version="1.0" encoding="utf-8"?>
<svg version="1.1" xmlns:xlink="http://www.w3.org/1999/xlink" width="12px" height="12px" viewBox="412 172.5  12 12" xmlns="http://www.w3.org/2000/svg">
  <path d="M 418 172.5  C 421.36 172.5  424 175.14  424 178.5  C 424 181.86  421.36 184.5  418 184.5  C 414.64 184.5  412 181.86  412 178.5  C 412 175.14  414.64 172.5  418 172.5  Z " fill-rule="nonzero" fill="#f0f0f0" stroke="none" />
  <path d="M 418 173  C 421.08 173  423.5 175.42  423.5 178.5  C 423.5 181.58  421.08 184  418 184  C 414.92 184  412.5 181.58  412.5 178.5  C 412.5 175.42  414.92 173  418 173  Z " stroke-width="1" stroke="#797979" fill="none" />
  <path d="M 418 181.5  C 416.32 181.5  415 180.18  415 178.5  C 415 176.82  416.32 175.5  418 175.5  C 419.68 175.5  421 176.82  421 178.5  C 421 180.18  419.68 181.5  418 181.5  " fill-rule="nonzero" fill="#797979" stroke="none" />
</svg>