<?xml version="1.0" encoding="utf-8"?>
<svg version="1.1" xmlns:xlink="http://www.w3.org/1999/xlink" width="12px" height="12px" viewBox="528 172.5  12 12" xmlns="http://www.w3.org/2000/svg">
  <path d="M 534 172.5  C 537.36 172.5  540 175.14  540 178.5  C 540 181.86  537.36 184.5  534 184.5  C 530.64 184.5  528 181.86  528 178.5  C 528 175.14  530.64 172.5  534 172.5  Z " fill-rule="nonzero" fill="#f0f0f0" stroke="none" />
  <path d="M 534 173  C 537.08 173  539.5 175.42  539.5 178.5  C 539.5 181.58  537.08 184  534 184  C 530.92 184  528.5 181.58  528.5 178.5  C 528.5 175.42  530.92 173  534 173  Z " stroke-width="1" stroke="#797979" fill="none" />
  <path d="M 534 181.5  C 532.32 181.5  531 180.18  531 178.5  C 531 176.82  532.32 175.5  534 175.5  C 535.68 175.5  537 176.82  537 178.5  C 537 180.18  535.68 181.5  534 181.5  " fill-rule="nonzero" fill="#797979" stroke="none" />
</svg>