<?xml version="1.0" encoding="utf-8"?>
<svg version="1.1" xmlns:xlink="http://www.w3.org/1999/xlink" width="12px" height="12px" viewBox="220 172.5  12 12" xmlns="http://www.w3.org/2000/svg">
  <path d="M 226 172.5  C 229.36 172.5  232 175.14  232 178.5  C 232 181.86  229.36 184.5  226 184.5  C 222.64 184.5  220 181.86  220 178.5  C 220 175.14  222.64 172.5  226 172.5  Z " fill-rule="nonzero" fill="#f0f0f0" stroke="none" />
  <path d="M 226 173  C 229.08 173  231.5 175.42  231.5 178.5  C 231.5 181.58  229.08 184  226 184  C 222.92 184  220.5 181.58  220.5 178.5  C 220.5 175.42  222.92 173  226 173  Z " stroke-width="1" stroke="#797979" fill="none" />
  <path d="M 226 181.5  C 224.32 181.5  223 180.18  223 178.5  C 223 176.82  224.32 175.5  226 175.5  C 227.68 175.5  229 176.82  229 178.5  C 229 180.18  227.68 181.5  226 181.5  " fill-rule="nonzero" fill="#797979" stroke="none" />
</svg>